<?xml version="1.0" encoding="utf-8"?>
<!-- Generator: Adobe Illustrator 26.0.2, SVG Export Plug-In . SVG Version: 6.00 Build 0)  -->
<svg version="1.1" id="logo_copy" xmlns="http://www.w3.org/2000/svg" xmlns:xlink="http://www.w3.org/1999/xlink" x="0px" y="0px"
	 viewBox="0 0 220 23" style="enable-background:new 0 0 220 23;" xml:space="preserve">
<style type="text/css">
	.st0{fill:#C11C1F;}
</style>
<path id="Fill_1" class="st0" d="M0.3,0.1V22h4.6v-8.9h9V9h-9V4.3h9.8V0.1H0.3z"/>
<path id="Fill_2" class="st0" d="M23.1,22H18l8.1-21.9h5.8L40,22h-5.1l-1.6-4.8h-8.5L23.1,22L23.1,22z M29,4.7l-2.9,8.6h5.8L29,4.7z
	"/>
<path id="Fill_3" class="st0" d="M57.4,5.8c-1.3-0.9-2.8-1.4-4.4-1.5c-1.8,0-2.9,1-2.9,2.3c0,1.4,1,1.9,2.8,2.5
	c3.9,1.3,6.7,2.6,6.7,6.8c0,3.9-3.1,7-8.1,7c-2.5,0-4.9-0.7-6.9-2l1.4-4.1c1.6,1.2,3.4,1.8,5.4,1.9c1.9,0,3.6-0.8,3.6-2.5
	c0-1.4-1.1-2.2-3.7-3c-3.1-1.1-5.8-2.5-5.8-6.3c0-3.8,3-6.8,7.4-6.8c2,0,3.9,0.5,5.6,1.6L57.4,5.8z"/>
<path id="Fill_6" class="st0" d="M75,22h-4.7V4.3h-6.7V0.1h18.1v4.2H75V22z"/>
<path id="Fill_8" class="st0" d="M104.8,21.3c-2.2,1.1-4.7,1.6-7.1,1.6c-8,0-11.9-5.5-11.9-11.4c0-7,5.3-11.4,11.9-11.4
	c2.5,0,5,0.7,7.2,2.1l-1.5,4.2c-1.5-1.4-3.5-2.1-5.6-2.1c-3.7-0.2-7,2.6-7.2,6.4c0,0.3,0,0.5,0,0.8c0,3.8,2.4,7.2,7.5,7.2
	c2.5,0,4.8-0.8,6.8-2.2V21.3z"/>
<path id="Fill_11" class="st0" d="M120.8,22.9c-3,0-5.9-1.1-8.1-3.1c-1.1-1-1.9-2.2-2.5-3.6c-0.6-1.5-0.9-3.1-0.9-4.7
	c0-1.6,0.3-3.2,0.9-4.7c0.6-1.4,1.4-2.6,2.5-3.6c2.2-2,5.1-3.2,8.1-3.1c3,0,5.9,1.1,8.1,3.1c2.2,2.2,3.4,5.1,3.4,8.2
	c0,1.6-0.3,3.2-0.9,4.6c-0.6,1.4-1.4,2.6-2.5,3.6C126.7,21.8,123.8,22.9,120.8,22.9z M120.8,4.3c-3.8,0.1-6.9,3.2-6.8,7.1
	c0,0,0,0.1,0,0.1c-0.1,3.8,2.9,7,6.7,7.2c0,0,0.1,0,0.1,0c3.8-0.1,6.9-3.2,6.8-7.1c0,0,0-0.1,0-0.1c0.1-3.8-2.9-7-6.7-7.2
	C120.9,4.3,120.8,4.3,120.8,4.3z"/>
<path id="Fill_14" class="st0" d="M146.3,22h-9V0.1h9.1c3.7,0,6.6,1.1,8.6,3.3c1.8,2.1,2.7,4.9,2.5,7.6c0.1,2.8-0.8,5.5-2.6,7.7
	C153,20.9,150.1,22,146.3,22z M142,4.3v13.5h3c1.8,0.1,3.5-0.2,5.1-0.8c1.8-1,2.7-2.9,2.7-5.9c0-6.7-4.6-6.7-7.7-6.7L142,4.3z"/>
<path id="Fill_16" class="st0" d="M162.4,22h4.7V0.1h-4.7V22z"/>
<path id="Fill_18" class="st0" d="M179.3,0.1L189,15V0.1h4.7V22h-5.2l-9.7-14.9V22h-4.7V0.1H179.3z"/>
<path id="Fill_19" class="st0" d="M218,6.4c-1.9-1.4-4.1-2.1-6.4-2c-5.3,0-7.7,3.5-7.7,7.2c0,2.9,1.5,7.1,7.7,7.1
	c1.2,0,2.4-0.2,3.5-0.6v-4.1h-4.9v-4h9.5v11.4c-2.6,1.1-5.3,1.6-8.1,1.6c-8.3,0-12.4-5.6-12.4-11.4c0-6.8,5.3-11.4,12.3-11.4
	c2.8,0,5.6,0.7,8,2.1L218,6.4z"/>
</svg>
